<?xml version="1.0" encoding="iso-8859-1"?>
<!-- Generator: Adobe Illustrator 19.0.0, SVG Export Plug-In . SVG Version: 6.00 Build 0)  -->
<svg version="1.1" id="Capa_1" xmlns="http://www.w3.org/2000/svg" xmlns:xlink="http://www.w3.org/1999/xlink" x="0px" y="0px"
	 viewBox="0 0 512 512" style="enable-background:new 0 0 512 512;" xml:space="preserve">
<path style="fill:#5C5E70;" d="M512,256c0,66.435-25.307,126.976-66.821,172.471C398.367,479.796,330.94,512,256,512
	c-29.132,0-57.125-4.859-83.205-13.824c-0.094-0.031-0.199-0.063-0.293-0.104C80.509,466.348,12.267,383.666,1.494,283.763
	C0.502,274.641,0,265.383,0,256c0-26.843,4.138-52.726,11.797-77.04c5.925-18.798,13.96-36.655,23.824-53.29
	c11.368-19.174,25.161-36.739,40.97-52.276c26.133-25.684,57.752-45.798,92.933-58.42C196.535,5.277,225.646,0,256,0
	c8.589,0,17.074,0.418,25.433,1.254c16.865,1.661,33.249,4.953,48.985,9.738c19.174,5.81,37.386,13.803,54.345,23.709
	c35.004,20.396,64.721,48.88,86.612,82.871c1.411,2.184,2.79,4.399,4.127,6.625c20.961,34.826,33.865,75.065,36.133,118.105
	C511.875,246.836,512,251.402,512,256z"/>
<path style="fill:#4BC999;" d="M296.751,487.205l-124.249,10.867C80.509,466.348,12.267,383.666,1.494,283.763l25.725-72.077
	l152.503-42.13c-15.067,5.622,161.959,120.498,161.959,120.498S301.996,503.077,296.751,487.205z"/>
<path style="fill:#34ABE0;" d="M466.578,368.515l-21.4,59.956C398.367,479.796,330.94,512,256,512
	c-29.132,0-57.125-4.859-83.205-13.824l22.852-64.031c5.622,15.067,17.596,27.648,33.928,33.479
	c0.199,0.073,0.387,0.136,0.585,0.199c0.021,0.01,0.052,0.021,0.073,0.031c29.915,10.271,62.683-6.05,72.234-36.634
	c8.589-27.502-5.256-57.469-31.786-68.723c-0.909-0.387-1.818-0.742-2.738-1.076c-16.447-6.019-33.844-3.897-47.856,4.274
	l26.958-75.536c0,0,22.178-47.496,27.883-64.298c0.01-0.031,114.139-59.805,141.986-51.08
	C447.676,184.424,466.578,368.515,466.578,368.515z"/>
<path style="fill:#FFD15C;" d="M511.634,242.301l-45.056,126.213l-75.546-26.969c15.067-5.611,27.648-17.586,33.479-33.917
	c0.052-0.146,0.105-0.303,0.157-0.449c0-0.01,0.01-0.021,0.01-0.031c10.397-29.968-5.925-62.84-36.561-72.411
	c-27.502-8.6-57.48,5.245-68.723,31.775c-0.355,0.846-0.69,1.682-1.003,2.539c-0.031,0.063-0.052,0.125-0.073,0.199
	c-6.019,16.447-3.897,33.865,4.274,47.867l-75.546-26.958l27.533-77.124c-14.033,8.923-31.838,11.577-48.724,5.747
	c-0.951-0.324-1.902-0.679-2.853-1.066c-27.042-10.961-41.357-41.294-32.622-69.141c9.624-30.699,42.653-47,72.673-36.404
	c0.136,0.042,0.272,0.094,0.397,0.136c16.959,6.123,29.184,19.529,34.429,35.432l27.533-77.124l150.089,53.582
	C496.462,159.023,509.367,199.262,511.634,242.301z"/>
<path style="fill:#FF525D;" d="M174.318,314.093c7.183-17.718,4.74-36.747-4.677-51.57l77.116,27.526l26.966-75.544
	c-14.786,8.627-33.361,10.513-50.603,3.201c-26.529-11.249-40.375-41.223-31.782-68.728c9.622-30.797,42.8-47.136,72.893-36.395
	c16.331,5.829,28.304,18.41,33.924,33.477l26.966-75.544L132.2,1.653c-14.699-5.246-30.868,2.416-36.115,17.114l-68.862,192.92
	l77.116,27.526c-15.959,5.274-29.413,17.573-35.5,34.629c-10.735,30.075,5.579,63.232,36.342,72.876
	C133.023,355.447,163.356,341.134,174.318,314.093z"/>
<g>
</g>
<g>
</g>
<g>
</g>
<g>
</g>
<g>
</g>
<g>
</g>
<g>
</g>
<g>
</g>
<g>
</g>
<g>
</g>
<g>
</g>
<g>
</g>
<g>
</g>
<g>
</g>
<g>
</g>
</svg>
