<?xml version="1.0" encoding="iso-8859-1"?>
<!-- Generator: Adobe Illustrator 19.0.0, SVG Export Plug-In . SVG Version: 6.00 Build 0)  -->
<svg version="1.1" id="Capa_1" xmlns="http://www.w3.org/2000/svg" xmlns:xlink="http://www.w3.org/1999/xlink" x="0px" y="0px"
	 viewBox="0 0 512 512" style="enable-background:new 0 0 512 512;" xml:space="preserve">
<path style="fill:#34ABE0;" d="M512,256c0,2.957-0.052,5.904-0.146,8.829c-0.951,28.014-6.405,54.899-15.653,79.934
	c-9.049,24.451-21.713,47.135-37.344,67.417c-13.49,17.491-29.184,33.186-46.675,46.675c-43.217,33.322-97.374,53.143-156.18,53.143
	c-89.244,0-167.81-45.662-213.639-114.896c-10.93-16.52-19.999-34.387-26.896-53.29C5.456,316.426,0.002,286.845,0.002,256
	c0-13.855,1.097-27.46,3.229-40.719c5.517-34.586,17.972-66.863,35.892-95.357c20.501-32.601,48.149-60.259,80.749-80.76
	c28.505-17.941,60.802-30.406,95.409-35.934c13.26-2.132,26.864-3.229,40.719-3.229c64.804,0,123.977,24.074,169.074,63.78
	c7.325,6.437,14.284,13.312,20.835,20.543c0,0.01,0.01,0.031,0.031,0.042c0.899,0.993,1.797,2.006,2.685,3.02
	c6.813,7.774,13.155,15.956,18.996,24.524v0.01C495.626,152.963,512,202.564,512,256z"/>
<path style="fill:#78CAEF;" d="M303.982,58.253c-25.527-25.527-57.072-41.43-90.101-47.72C174.206,2.967,132.4,9.268,96.299,29.445
	c-13.646,7.628-26.467,17.22-38.055,28.808C16.01,100.477,0.106,159.221,10.534,213.879c5.13,26.969,16.677,52.934,34.607,75.452
	c4.044,5.068,8.411,9.968,13.103,14.66c15.329,15.329,32.831,27.188,51.524,35.579c4.274,1.923,8.62,3.657,13.009,5.214
	c0.052,0.021,0.094,0.042,0.146,0.052c37.627,13.302,78.942,13.291,116.558-0.063c20.104-7.126,39.142-18.066,55.985-32.81
	c2.915-2.55,5.747-5.214,8.516-7.973c2.769-2.779,5.423-5.622,7.973-8.526c6.342-7.262,11.974-14.9,16.906-22.873
	c11.274-18.202,18.871-38.045,22.8-58.472C362.172,159.388,346.28,100.54,303.982,58.253z"/>
<path style="fill:#5C5E70;" d="M312.308,295.109l40.726,40.726c-3.717,1.609-7.202,3.926-10.236,6.959s-5.361,6.519-6.959,10.236
	l-40.726-40.713c3.033-2.652,5.998-5.43,8.881-8.313C306.889,301.108,309.656,298.144,312.308,295.109z"/>
<path style="fill:#EF4152;" d="M458.856,412.18c-9.864,12.789-20.898,24.607-32.956,35.317c-4.441,3.939-9.017,7.732-13.719,11.358
	l-79.955-79.966c-9.853-9.853-12.173-24.377-6.959-36.435c1.599-3.72,3.918-7.199,6.959-10.24c2.173-2.173,4.577-3.971,7.126-5.392
	c1.014-0.585,2.048-1.097,3.103-1.557c4.169-1.808,8.631-2.717,13.103-2.717c8.443,0,16.875,3.229,23.332,9.665L458.856,412.18z"/>
<circle style="fill:#FFD15C;" cx="156.034" cy="167.12" r="36.989"/>
<path style="fill:#E28D40;" d="M212.523,344.742l-89.746,0.042l-18.233,0.01l5.224-5.224c-18.693-8.39-36.195-20.25-51.524-35.579
	c-4.692-4.692-9.059-9.592-13.103-14.66l55.547-55.547l57.657,57.208L212.523,344.742z"/>
<path style="fill:#F4A14E;" d="M351.661,214.119c-3.929,20.428-11.525,40.27-22.8,58.472c-4.932,7.973-10.564,15.611-16.906,22.873
	c-2.55,2.905-5.204,5.747-7.973,8.526c-2.769,2.759-5.601,5.423-8.516,7.973c-16.844,14.743-35.882,25.683-55.985,32.81
	l-116.558,0.063l-18.432,0.01l0.052-0.052l53.802-53.802L293.22,156.138l43.906,43.572L351.661,214.119z"/>
<path style="fill:#FF525D;" d="M458.856,412.18c-9.864,12.789-20.898,24.607-32.956,35.317l-81.136-81.146
	c-9.853-9.853-12.173-24.377-6.959-36.435c0.449-1.055,0.961-2.09,1.546-3.093c1.014-0.585,2.048-1.097,3.103-1.557
	c4.169-1.808,8.631-2.717,13.103-2.717c8.443,0,16.875,3.229,23.332,9.665L458.856,412.18z"/>
<path style="fill:#FFD15C;" d="M309.238,52.987C282.625,26.374,249.731,9.792,215.281,3.23
	C173.914-4.659,130.31,1.913,92.673,22.947c-14.231,7.962-27.606,17.962-39.685,30.041C8.946,97.03-7.647,158.281,3.23,215.28
	c6.562,34.45,23.144,67.354,49.758,93.967c67.761,67.761,176.274,70.53,247.368,8.317c3.041-2.654,5.998-5.433,8.882-8.317
	c2.894-2.894,5.663-5.862,8.317-8.892c6.614-7.565,12.486-15.538,17.627-23.844C378.462,206.66,369.8,113.539,309.238,52.987z
	 M318.788,251.455c-4.974,9.728-10.951,18.85-17.805,27.251c-28.338,34.785-71.513,56.978-119.86,56.978
	c-22.601,0-44.074-4.848-63.425-13.573c-26.791-12.048-49.518-31.524-65.578-55.808c-16.165-24.419-25.579-53.708-25.579-85.19
	c0-21.734,4.483-42.423,12.581-61.189c10.846-25.119,28.149-46.79,49.831-62.903c9.519-7.084,19.884-13.093,30.918-17.857
	c18.787-8.119,39.487-12.612,61.252-12.612c85.357,0,154.561,69.193,154.561,154.561
	C335.684,206.451,329.593,230.358,318.788,251.455z"/>
<g>
	<circle style="fill:#92DBF4;" cx="260.168" cy="120.016" r="34.638"/>
	<circle style="fill:#92DBF4;" cx="203.817" cy="74.961" r="21.49"/>
</g>
<g>
</g>
<g>
</g>
<g>
</g>
<g>
</g>
<g>
</g>
<g>
</g>
<g>
</g>
<g>
</g>
<g>
</g>
<g>
</g>
<g>
</g>
<g>
</g>
<g>
</g>
<g>
</g>
<g>
</g>
</svg>
